# xmcd
#
# Track frame offsets:
#	150
#	32341
#	62089
#	110915
#	155698
#	190434
#
# Disc length: 2956 seconds
#
# Revision: 1
# Processed by: cddbd v1.5.2PL0 Copyright (c) Steve Scherf et al.
# Submitted via: audiograbber 1.83.01
#
DISCID=500b8a06
DTITLE=Grateful Dead - 82-10-09 Frost Amphitheatre, Palo Alto CA
DYEAR=1900
DGENRE=
TTITLE0=Throwing Stones
TTITLE1=Touch Of Grey
TTITLE2=Estimated Prophet
TTITLE3=Eyes Of The World
TTITLE4=Drums
TTITLE5=Space
EXTD=
EXTT0=
EXTT1=
EXTT2=
EXTT3=
EXTT4=
EXTT5=
PLAYORDER=
